<svg width="163" height="34" viewBox="0 0 163 34" fill="none" xmlns="http://www.w3.org/2000/svg">
<path d="M0.5 14.4103L0.5 14.4099C0.499899 14.2698 0.533075 14.1308 0.597963 14.0032C0.662899 13.8755 0.758297 13.7619 0.878352 13.6721L12.8783 4.70419L12.8784 4.70416C13.0539 4.57297 13.2726 4.5 13.5 4.5C13.7274 4.5 13.9461 4.57297 14.1216 4.70416L14.1217 4.70419L26.1216 13.6721C26.2417 13.7619 26.3371 13.8755 26.402 14.0032C26.4669 14.1308 26.5001 14.2698 26.5 14.4099V14.4103V29.5587C26.5 29.8017 26.3997 30.0391 26.2142 30.2173C26.0281 30.3962 25.7715 30.5 25.5 30.5H1.5C1.22849 30.5 0.971917 30.3962 0.785772 30.2173C0.600306 30.0391 0.5 29.8017 0.5 29.5587L0.5 14.4103Z" stroke="#F2F2F2"/>
<path d="M4.545 17.5485H9V19.2781H6.3558C6.55613 20.8022 7.27842 22.219 8.40891 23.3053C9.5394 24.3915 11.0138 25.0856 12.6 25.2781V16.5747C11.7536 16.3622 11.0165 15.861 10.5266 15.1645C10.0366 14.4681 9.82719 13.6241 9.93741 12.7902C10.0476 11.9563 10.47 11.1894 11.1255 10.6327C11.7811 10.0761 12.6251 9.76777 13.5 9.76532C14.3768 9.76449 15.2239 10.0712 15.8821 10.6278C16.5403 11.1845 16.9644 11.9529 17.0749 12.7887C17.1853 13.6245 16.9745 14.4704 16.4821 15.1674C15.9896 15.8645 15.2492 16.3649 14.4 16.5747V25.2781C15.9862 25.0856 17.4606 24.3915 18.5911 23.3053C19.7216 22.219 20.4439 20.8022 20.6442 19.2781H18V17.5485H22.455C22.4847 17.833 22.5 18.1219 22.5 18.4133C22.5 23.1896 18.4707 27.0613 13.5 27.0613C8.5293 27.0613 4.5 23.1896 4.5 18.4133C4.5 18.1219 4.5153 17.833 4.545 17.5485ZM13.5 14.9541C13.9774 14.9541 14.4352 14.7719 14.7728 14.4475C15.1104 14.1232 15.3 13.6832 15.3 13.2245C15.3 12.7658 15.1104 12.3259 14.7728 12.0015C14.4352 11.6771 13.9774 11.4949 13.5 11.4949C13.0226 11.4949 12.5648 11.6771 12.2272 12.0015C11.8896 12.3259 11.7 12.7658 11.7 13.2245C11.7 13.6832 11.8896 14.1232 12.2272 14.4475C12.5648 14.7719 13.0226 14.9541 13.5 14.9541Z" fill="#F2F2F2"/>
<path d="M43.56 22.44L40.152 13.528C39.9067 12.92 39.6613 12.152 39.416 11.224C39.2987 11.6827 39.176 12.1093 39.048 12.504C38.9307 12.8987 38.8133 13.2507 38.696 13.56L35.304 22.44H43.56ZM50.296 31H47.672C47.3733 31 47.128 30.9253 46.936 30.776C46.744 30.6267 46.6053 30.4347 46.52 30.2L44.488 24.872H34.36L32.328 30.2C32.2533 30.4027 32.1147 30.5893 31.912 30.76C31.7093 30.92 31.464 31 31.176 31H28.552L37.704 8.024H41.144L50.296 31ZM55.4845 25.113C55.4472 25.1737 55.4075 25.218 55.3655 25.246C55.3235 25.2693 55.2698 25.281 55.2045 25.281C55.1298 25.281 55.0458 25.2553 54.9525 25.204C54.8638 25.1527 54.7542 25.0967 54.6235 25.036C54.4975 24.9753 54.3482 24.9193 54.1755 24.868C54.0028 24.8167 53.7975 24.791 53.5595 24.791C53.3635 24.791 53.1838 24.8167 53.0205 24.868C52.8618 24.9147 52.7265 24.9823 52.6145 25.071C52.5025 25.155 52.4162 25.2577 52.3555 25.379C52.2948 25.4957 52.2645 25.6217 52.2645 25.757C52.2645 25.9343 52.3158 26.0813 52.4185 26.198C52.5258 26.3147 52.6635 26.415 52.8315 26.499C53.0042 26.583 53.1978 26.66 53.4125 26.73C53.6318 26.7953 53.8535 26.8653 54.0775 26.94C54.3062 27.0147 54.5278 27.101 54.7425 27.199C54.9618 27.2923 55.1555 27.4113 55.3235 27.556C55.4962 27.696 55.6338 27.8663 55.7365 28.067C55.8438 28.2677 55.8975 28.5127 55.8975 28.802C55.8975 29.1333 55.8368 29.4413 55.7155 29.726C55.5988 30.006 55.4238 30.2487 55.1905 30.454C54.9618 30.6593 54.6772 30.8203 54.3365 30.937C53.9958 31.0537 53.6062 31.112 53.1675 31.112C52.6775 31.112 52.2248 31.0303 51.8095 30.867C51.3942 30.7037 51.0465 30.496 50.7665 30.244L51.0885 29.719C51.1258 29.6537 51.1725 29.6047 51.2285 29.572C51.2845 29.5347 51.3592 29.516 51.4525 29.516C51.5412 29.516 51.6322 29.5487 51.7255 29.614C51.8188 29.6793 51.9308 29.7517 52.0615 29.831C52.1922 29.9057 52.3508 29.9757 52.5375 30.041C52.7242 30.1017 52.9575 30.132 53.2375 30.132C53.4708 30.132 53.6738 30.104 53.8465 30.048C54.0192 29.9873 54.1615 29.908 54.2735 29.81C54.3902 29.7073 54.4765 29.5907 54.5325 29.46C54.5885 29.3293 54.6165 29.1917 54.6165 29.047C54.6165 28.8603 54.5628 28.7063 54.4555 28.585C54.3528 28.459 54.2152 28.3517 54.0425 28.263C53.8745 28.1743 53.6808 28.0973 53.4615 28.032C53.2422 27.9667 53.0182 27.8967 52.7895 27.822C52.5608 27.7473 52.3368 27.661 52.1175 27.563C51.8982 27.465 51.7022 27.3413 51.5295 27.192C51.3615 27.0427 51.2238 26.8607 51.1165 26.646C51.0138 26.4313 50.9625 26.17 50.9625 25.862C50.9625 25.5867 51.0185 25.323 51.1305 25.071C51.2472 24.819 51.4128 24.5973 51.6275 24.406C51.8468 24.2147 52.1152 24.063 52.4325 23.951C52.7545 23.8343 53.1208 23.776 53.5315 23.776C54.0028 23.776 54.4275 23.8507 54.8055 24C55.1882 24.1493 55.5148 24.3547 55.7855 24.616L55.4845 25.113ZM61.5685 25.113C61.5312 25.1737 61.4915 25.218 61.4495 25.246C61.4075 25.2693 61.3538 25.281 61.2885 25.281C61.2138 25.281 61.1298 25.2553 61.0365 25.204C60.9478 25.1527 60.8382 25.0967 60.7075 25.036C60.5815 24.9753 60.4322 24.9193 60.2595 24.868C60.0868 24.8167 59.8815 24.791 59.6435 24.791C59.4475 24.791 59.2678 24.8167 59.1045 24.868C58.9458 24.9147 58.8105 24.9823 58.6985 25.071C58.5865 25.155 58.5002 25.2577 58.4395 25.379C58.3788 25.4957 58.3485 25.6217 58.3485 25.757C58.3485 25.9343 58.3998 26.0813 58.5025 26.198C58.6098 26.3147 58.7475 26.415 58.9155 26.499C59.0882 26.583 59.2818 26.66 59.4965 26.73C59.7158 26.7953 59.9375 26.8653 60.1615 26.94C60.3902 27.0147 60.6118 27.101 60.8265 27.199C61.0458 27.2923 61.2395 27.4113 61.4075 27.556C61.5802 27.696 61.7178 27.8663 61.8205 28.067C61.9278 28.2677 61.9815 28.5127 61.9815 28.802C61.9815 29.1333 61.9208 29.4413 61.7995 29.726C61.6828 30.006 61.5078 30.2487 61.2745 30.454C61.0458 30.6593 60.7612 30.8203 60.4205 30.937C60.0798 31.0537 59.6902 31.112 59.2515 31.112C58.7615 31.112 58.3088 31.0303 57.8935 30.867C57.4782 30.7037 57.1305 30.496 56.8505 30.244L57.1725 29.719C57.2098 29.6537 57.2565 29.6047 57.3125 29.572C57.3685 29.5347 57.4432 29.516 57.5365 29.516C57.6252 29.516 57.7162 29.5487 57.8095 29.614C57.9028 29.6793 58.0148 29.7517 58.1455 29.831C58.2762 29.9057 58.4348 29.9757 58.6215 30.041C58.8082 30.1017 59.0415 30.132 59.3215 30.132C59.5548 30.132 59.7578 30.104 59.9305 30.048C60.1032 29.9873 60.2455 29.908 60.3575 29.81C60.4742 29.7073 60.5605 29.5907 60.6165 29.46C60.6725 29.3293 60.7005 29.1917 60.7005 29.047C60.7005 28.8603 60.6468 28.7063 60.5395 28.585C60.4368 28.459 60.2992 28.3517 60.1265 28.263C59.9585 28.1743 59.7648 28.0973 59.5455 28.032C59.3262 27.9667 59.1022 27.8967 58.8735 27.822C58.6448 27.7473 58.4208 27.661 58.2015 27.563C57.9822 27.465 57.7862 27.3413 57.6135 27.192C57.4455 27.0427 57.3078 26.8607 57.2005 26.646C57.0978 26.4313 57.0465 26.17 57.0465 25.862C57.0465 25.5867 57.1025 25.323 57.2145 25.071C57.3312 24.819 57.4968 24.5973 57.7115 24.406C57.9308 24.2147 58.1992 24.063 58.5165 23.951C58.8385 23.8343 59.2048 23.776 59.6155 23.776C60.0868 23.776 60.5115 23.8507 60.8895 24C61.2722 24.1493 61.5988 24.3547 61.8695 24.616L61.5685 25.113ZM66.4905 23.776C67.0131 23.776 67.4845 23.8623 67.9045 24.035C68.3291 24.203 68.6885 24.448 68.9825 24.77C69.2811 25.0873 69.5098 25.4723 69.6685 25.925C69.8271 26.373 69.9065 26.877 69.9065 27.437C69.9065 27.997 69.8271 28.5033 69.6685 28.956C69.5098 29.4087 69.2811 29.7937 68.9825 30.111C68.6885 30.4283 68.3291 30.6733 67.9045 30.846C67.4845 31.014 67.0131 31.098 66.4905 31.098C65.9631 31.098 65.4871 31.014 65.0625 30.846C64.6425 30.6733 64.2831 30.4283 63.9845 30.111C63.6858 29.7937 63.4548 29.4087 63.2915 28.956C63.1328 28.5033 63.0535 27.997 63.0535 27.437C63.0535 26.877 63.1328 26.373 63.2915 25.925C63.4548 25.4723 63.6858 25.0873 63.9845 24.77C64.2831 24.448 64.6425 24.203 65.0625 24.035C65.4871 23.8623 65.9631 23.776 66.4905 23.776ZM66.4905 30.034C67.1625 30.034 67.6641 29.8077 67.9955 29.355C68.3268 28.9023 68.4925 28.2653 68.4925 27.444C68.4925 26.6227 68.3268 25.9857 67.9955 25.533C67.6641 25.0757 67.1625 24.847 66.4905 24.847C65.8091 24.847 65.3005 25.0757 64.9645 25.533C64.6331 25.9857 64.4675 26.6227 64.4675 27.444C64.4675 28.2653 64.6331 28.9023 64.9645 29.355C65.3005 29.8077 65.8091 30.034 66.4905 30.034ZM76.4142 25.218C76.3722 25.2693 76.3302 25.3113 76.2882 25.344C76.2508 25.372 76.1948 25.386 76.1202 25.386C76.0455 25.386 75.9662 25.358 75.8822 25.302C75.8028 25.2413 75.7002 25.1783 75.5742 25.113C75.4528 25.043 75.3035 24.98 75.1262 24.924C74.9535 24.8633 74.7388 24.833 74.4822 24.833C74.1462 24.833 73.8498 24.8937 73.5932 25.015C73.3365 25.1363 73.1218 25.309 72.9492 25.533C72.7812 25.757 72.6528 26.03 72.5642 26.352C72.4755 26.674 72.4312 27.0357 72.4312 27.437C72.4312 27.8523 72.4778 28.2233 72.5712 28.55C72.6645 28.872 72.7975 29.145 72.9702 29.369C73.1428 29.5883 73.3528 29.7563 73.6002 29.873C73.8475 29.985 74.1228 30.041 74.4262 30.041C74.7202 30.041 74.9628 30.006 75.1542 29.936C75.3455 29.8613 75.5042 29.782 75.6302 29.698C75.7562 29.614 75.8612 29.537 75.9452 29.467C76.0292 29.3923 76.1155 29.355 76.2042 29.355C76.3162 29.355 76.4025 29.397 76.4632 29.481L76.8552 29.985C76.6918 30.1857 76.5075 30.356 76.3022 30.496C76.1015 30.636 75.8868 30.7503 75.6582 30.839C75.4295 30.9277 75.1892 30.993 74.9372 31.035C74.6898 31.077 74.4378 31.098 74.1812 31.098C73.7378 31.098 73.3225 31.0163 72.9352 30.853C72.5525 30.6897 72.2188 30.4517 71.9342 30.139C71.6542 29.8263 71.4325 29.4437 71.2692 28.991C71.1058 28.5337 71.0242 28.0157 71.0242 27.437C71.0242 26.9097 71.0965 26.422 71.2412 25.974C71.3905 25.526 71.6075 25.141 71.8922 24.819C72.1815 24.4923 72.5362 24.238 72.9562 24.056C73.3762 23.8693 73.8568 23.776 74.3982 23.776C74.9068 23.776 75.3548 23.8577 75.7422 24.021C76.1295 24.1843 76.4748 24.4153 76.7782 24.714L76.4142 25.218ZM79.5574 23.888V31H78.1924V23.888H79.5574ZM79.8164 21.69C79.8164 21.816 79.7907 21.9373 79.7394 22.054C79.6881 22.166 79.6181 22.2663 79.5294 22.355C79.4454 22.439 79.3451 22.5067 79.2284 22.558C79.1117 22.6047 78.9904 22.628 78.8644 22.628C78.7384 22.628 78.6194 22.6047 78.5074 22.558C78.3954 22.5067 78.2951 22.439 78.2064 22.355C78.1224 22.2663 78.0547 22.166 78.0034 22.054C77.9567 21.9373 77.9334 21.816 77.9334 21.69C77.9334 21.5593 77.9567 21.438 78.0034 21.326C78.0547 21.2093 78.1224 21.109 78.2064 21.025C78.2951 20.9363 78.3954 20.8687 78.5074 20.822C78.6194 20.7707 78.7384 20.745 78.8644 20.745C78.9904 20.745 79.1117 20.7707 79.2284 20.822C79.3451 20.8687 79.4454 20.9363 79.5294 21.025C79.6181 21.109 79.6881 21.2093 79.7394 21.326C79.7907 21.438 79.8164 21.5593 79.8164 21.69ZM85.3557 27.843C84.8004 27.8617 84.329 27.906 83.9417 27.976C83.5544 28.0413 83.2394 28.13 82.9967 28.242C82.754 28.354 82.579 28.487 82.4717 28.641C82.3644 28.7903 82.3107 28.9583 82.3107 29.145C82.3107 29.3223 82.3387 29.4763 82.3947 29.607C82.4554 29.733 82.5347 29.838 82.6327 29.922C82.7354 30.0013 82.8544 30.0597 82.9897 30.097C83.125 30.1343 83.272 30.153 83.4307 30.153C83.6407 30.153 83.832 30.132 84.0047 30.09C84.182 30.048 84.3477 29.9897 84.5017 29.915C84.6557 29.8357 84.8027 29.74 84.9427 29.628C85.0827 29.516 85.2204 29.3877 85.3557 29.243V27.843ZM81.3517 24.882C81.7484 24.504 82.1777 24.2217 82.6397 24.035C83.1064 23.8483 83.6174 23.755 84.1727 23.755C84.5787 23.755 84.938 23.8227 85.2507 23.958C85.5634 24.0887 85.827 24.273 86.0417 24.511C86.2564 24.749 86.4174 25.0337 86.5247 25.365C86.6367 25.6963 86.6927 26.0627 86.6927 26.464V31H86.0837C85.9484 31 85.8457 30.979 85.7757 30.937C85.7057 30.8903 85.6497 30.8063 85.6077 30.685L85.4607 30.062C85.2787 30.23 85.099 30.3793 84.9217 30.51C84.7444 30.636 84.5577 30.7457 84.3617 30.839C84.1704 30.9277 83.965 30.9953 83.7457 31.042C83.5264 31.0887 83.2837 31.112 83.0177 31.112C82.7377 31.112 82.474 31.0747 82.2267 31C81.984 30.9207 81.7717 30.8017 81.5897 30.643C81.4077 30.4843 81.263 30.286 81.1557 30.048C81.053 29.81 81.0017 29.5323 81.0017 29.215C81.0017 28.935 81.0764 28.6667 81.2257 28.41C81.3797 28.1487 81.627 27.9153 81.9677 27.71C82.313 27.5047 82.761 27.3367 83.3117 27.206C83.867 27.0753 84.5484 27.0007 85.3557 26.982V26.464C85.3557 25.9273 85.2414 25.526 85.0127 25.26C84.784 24.994 84.448 24.861 84.0047 24.861C83.706 24.861 83.454 24.8983 83.2487 24.973C83.048 25.0477 82.873 25.1317 82.7237 25.225C82.579 25.3137 82.4507 25.3953 82.3387 25.47C82.2314 25.5447 82.1194 25.582 82.0027 25.582C81.9094 25.582 81.8277 25.5563 81.7577 25.505C81.6924 25.4537 81.6387 25.393 81.5967 25.323L81.3517 24.882ZM93.945 29.985C93.665 30.3303 93.329 30.5893 92.937 30.762C92.5497 30.9347 92.139 31.0397 91.705 31.077L91.586 31.497C92.02 31.5903 92.3304 31.7187 92.517 31.882C92.7037 32.05 92.797 32.26 92.797 32.512C92.797 32.666 92.7574 32.8037 92.678 32.925C92.6034 33.0463 92.4984 33.149 92.363 33.233C92.2277 33.317 92.062 33.3823 91.866 33.429C91.6747 33.4757 91.4647 33.499 91.236 33.499C91.0447 33.499 90.8627 33.4803 90.69 33.443C90.522 33.4103 90.3634 33.3613 90.214 33.296L90.34 32.869C90.368 32.7803 90.4264 32.736 90.515 32.736C90.543 32.736 90.5734 32.743 90.606 32.757C90.6434 32.7757 90.6877 32.792 90.739 32.806C90.7904 32.8247 90.8487 32.841 90.914 32.855C90.984 32.8737 91.0657 32.883 91.159 32.883C91.3457 32.883 91.4857 32.8457 91.579 32.771C91.6724 32.6963 91.719 32.603 91.719 32.491C91.719 32.323 91.6234 32.204 91.432 32.134C91.2454 32.0687 90.9747 32.0127 90.62 31.966L90.914 31.077C90.5127 31.035 90.1417 30.923 89.801 30.741C89.4604 30.559 89.164 30.314 88.912 30.006C88.6647 29.6933 88.4687 29.3223 88.324 28.893C88.184 28.4637 88.114 27.9783 88.114 27.437C88.114 26.9097 88.1864 26.422 88.331 25.974C88.4804 25.526 88.6974 25.141 88.982 24.819C89.2714 24.4923 89.626 24.238 90.046 24.056C90.466 23.8693 90.9467 23.776 91.488 23.776C91.9967 23.776 92.4447 23.8577 92.832 24.021C93.2194 24.1843 93.5647 24.4153 93.868 24.714L93.504 25.218C93.462 25.2693 93.42 25.3113 93.378 25.344C93.3407 25.372 93.2847 25.386 93.21 25.386C93.1354 25.386 93.056 25.358 92.972 25.302C92.8927 25.2413 92.79 25.1783 92.664 25.113C92.5427 25.043 92.3934 24.98 92.216 24.924C92.0434 24.8633 91.8287 24.833 91.572 24.833C91.236 24.833 90.9397 24.8937 90.683 25.015C90.4264 25.1363 90.2117 25.309 90.039 25.533C89.871 25.757 89.7427 26.03 89.654 26.352C89.5654 26.674 89.521 27.0357 89.521 27.437C89.521 27.8523 89.5677 28.2233 89.661 28.55C89.7544 28.872 89.8874 29.145 90.06 29.369C90.2327 29.5883 90.4427 29.7563 90.69 29.873C90.9374 29.985 91.2127 30.041 91.516 30.041C91.81 30.041 92.0527 30.006 92.244 29.936C92.4354 29.8613 92.594 29.782 92.72 29.698C92.846 29.614 92.951 29.537 93.035 29.467C93.119 29.3923 93.2054 29.355 93.294 29.355C93.406 29.355 93.4924 29.397 93.553 29.481L93.945 29.985ZM99.0412 27.843C98.4859 27.8617 98.0146 27.906 97.6272 27.976C97.2399 28.0413 96.9249 28.13 96.6822 28.242C96.4396 28.354 96.2646 28.487 96.1572 28.641C96.0499 28.7903 95.9962 28.9583 95.9962 29.145C95.9962 29.3223 96.0242 29.4763 96.0802 29.607C96.1409 29.733 96.2202 29.838 96.3182 29.922C96.4209 30.0013 96.5399 30.0597 96.6752 30.097C96.8106 30.1343 96.9576 30.153 97.1162 30.153C97.3262 30.153 97.5176 30.132 97.6902 30.09C97.8676 30.048 98.0332 29.9897 98.1872 29.915C98.3412 29.8357 98.4882 29.74 98.6282 29.628C98.7682 29.516 98.9059 29.3877 99.0412 29.243V27.843ZM95.0372 24.882C95.4339 24.504 95.8632 24.2217 96.3252 24.035C96.7919 23.8483 97.3029 23.755 97.8582 23.755C98.2642 23.755 98.6236 23.8227 98.9362 23.958C99.2489 24.0887 99.5126 24.273 99.7272 24.511C99.9419 24.749 100.103 25.0337 100.21 25.365C100.322 25.6963 100.378 26.0627 100.378 26.464V31H99.7692C99.6339 31 99.5312 30.979 99.4612 30.937C99.3912 30.8903 99.3352 30.8063 99.2932 30.685L99.1462 30.062C98.9642 30.23 98.7846 30.3793 98.6072 30.51C98.4299 30.636 98.2432 30.7457 98.0472 30.839C97.8559 30.9277 97.6506 30.9953 97.4312 31.042C97.2119 31.0887 96.9692 31.112 96.7032 31.112C96.4232 31.112 96.1596 31.0747 95.9122 31C95.6696 30.9207 95.4572 30.8017 95.2752 30.643C95.0932 30.4843 94.9486 30.286 94.8412 30.048C94.7386 29.81 94.6872 29.5323 94.6872 29.215C94.6872 28.935 94.7619 28.6667 94.9112 28.41C95.0652 28.1487 95.3126 27.9153 95.6532 27.71C95.9986 27.5047 96.4466 27.3367 96.9972 27.206C97.5526 27.0753 98.2339 27.0007 99.0412 26.982V26.464C99.0412 25.9273 98.9269 25.526 98.6982 25.26C98.4696 24.994 98.1336 24.861 97.6902 24.861C97.3916 24.861 97.1396 24.8983 96.9342 24.973C96.7336 25.0477 96.5586 25.1317 96.4092 25.225C96.2646 25.3137 96.1362 25.3953 96.0242 25.47C95.9169 25.5447 95.8049 25.582 95.6882 25.582C95.5949 25.582 95.5132 25.5563 95.4432 25.505C95.3779 25.4537 95.3242 25.393 95.2822 25.323L95.0372 24.882ZM98.4742 21.662C98.6329 21.662 98.7542 21.6153 98.8382 21.522C98.9269 21.4287 98.9736 21.2793 98.9782 21.074H99.8112C99.8112 21.3073 99.7786 21.5197 99.7132 21.711C99.6526 21.9023 99.5662 22.068 99.4542 22.208C99.3422 22.3433 99.2069 22.4483 99.0482 22.523C98.8896 22.5977 98.7146 22.635 98.5232 22.635C98.3599 22.635 98.2059 22.6023 98.0612 22.537C97.9212 22.4717 97.7882 22.3993 97.6622 22.32C97.5362 22.2407 97.4149 22.1683 97.2982 22.103C97.1862 22.0377 97.0789 22.005 96.9762 22.005C96.8222 22.005 96.7009 22.054 96.6122 22.152C96.5282 22.25 96.4839 22.3993 96.4792 22.6H95.6322C95.6322 22.3713 95.6626 22.1613 95.7232 21.97C95.7886 21.774 95.8796 21.6083 95.9962 21.473C96.1129 21.3377 96.2482 21.2327 96.4022 21.158C96.5609 21.0787 96.7359 21.039 96.9272 21.039C97.0952 21.039 97.2492 21.0717 97.3892 21.137C97.5339 21.2023 97.6692 21.2747 97.7952 21.354C97.9212 21.4287 98.0402 21.4987 98.1522 21.564C98.2642 21.6293 98.3716 21.662 98.4742 21.662ZM105.237 23.776C105.759 23.776 106.231 23.8623 106.651 24.035C107.075 24.203 107.435 24.448 107.729 24.77C108.027 25.0873 108.256 25.4723 108.415 25.925C108.573 26.373 108.653 26.877 108.653 27.437C108.653 27.997 108.573 28.5033 108.415 28.956C108.256 29.4087 108.027 29.7937 107.729 30.111C107.435 30.4283 107.075 30.6733 106.651 30.846C106.231 31.014 105.759 31.098 105.237 31.098C104.709 31.098 104.233 31.014 103.809 30.846C103.389 30.6733 103.029 30.4283 102.731 30.111C102.432 29.7937 102.201 29.4087 102.038 28.956C101.879 28.5033 101.8 27.997 101.8 27.437C101.8 26.877 101.879 26.373 102.038 25.925C102.201 25.4723 102.432 25.0873 102.731 24.77C103.029 24.448 103.389 24.203 103.809 24.035C104.233 23.8623 104.709 23.776 105.237 23.776ZM105.237 30.034C105.909 30.034 106.41 29.8077 106.742 29.355C107.073 28.9023 107.239 28.2653 107.239 27.444C107.239 26.6227 107.073 25.9857 106.742 25.533C106.41 25.0757 105.909 24.847 105.237 24.847C104.555 24.847 104.047 25.0757 103.711 25.533C103.379 25.9857 103.214 26.6227 103.214 27.444C103.214 28.2653 103.379 28.9023 103.711 29.355C104.047 29.8077 104.555 30.034 105.237 30.034ZM118.873 27.255L117.382 23.356C117.275 23.09 117.168 22.754 117.06 22.348C117.009 22.5487 116.955 22.7353 116.899 22.908C116.848 23.0807 116.797 23.2347 116.745 23.37L115.261 27.255H118.873ZM121.82 31H120.672C120.542 31 120.434 30.9673 120.35 30.902C120.266 30.8367 120.206 30.7527 120.168 30.65L119.279 28.319H114.848L113.959 30.65C113.927 30.7387 113.866 30.8203 113.777 30.895C113.689 30.965 113.581 31 113.455 31H112.307L116.311 20.948H117.816L121.82 31ZM119.37 20.178H118.376C118.316 20.178 118.243 20.1687 118.159 20.15C118.075 20.1267 117.991 20.0613 117.907 19.954L117.144 19.03L117.06 18.904L116.976 19.03L116.213 19.954C116.129 20.0613 116.045 20.1267 115.961 20.15C115.877 20.1687 115.805 20.178 115.744 20.178H114.792L116.465 18.267H117.697L119.37 20.178ZM124.049 24.875C124.203 24.7117 124.364 24.5623 124.532 24.427C124.7 24.2917 124.877 24.1773 125.064 24.084C125.255 23.986 125.458 23.9113 125.673 23.86C125.892 23.804 126.126 23.776 126.373 23.776C126.765 23.776 127.108 23.8413 127.402 23.972C127.701 24.1027 127.95 24.287 128.151 24.525C128.352 24.7583 128.503 25.0407 128.606 25.372C128.709 25.7033 128.76 26.0697 128.76 26.471V31H127.388V26.471C127.388 25.9623 127.271 25.568 127.038 25.288C126.805 25.0033 126.448 24.861 125.967 24.861C125.617 24.861 125.288 24.945 124.98 25.113C124.677 25.2763 124.394 25.5003 124.133 25.785V31H122.768V23.888H123.587C123.778 23.888 123.897 23.979 123.944 24.161L124.049 24.875ZM135.586 25.218C135.544 25.2693 135.502 25.3113 135.46 25.344C135.423 25.372 135.367 25.386 135.292 25.386C135.217 25.386 135.138 25.358 135.054 25.302C134.975 25.2413 134.872 25.1783 134.746 25.113C134.625 25.043 134.475 24.98 134.298 24.924C134.125 24.8633 133.911 24.833 133.654 24.833C133.318 24.833 133.022 24.8937 132.765 25.015C132.508 25.1363 132.294 25.309 132.121 25.533C131.953 25.757 131.825 26.03 131.736 26.352C131.647 26.674 131.603 27.0357 131.603 27.437C131.603 27.8523 131.65 28.2233 131.743 28.55C131.836 28.872 131.969 29.145 132.142 29.369C132.315 29.5883 132.525 29.7563 132.772 29.873C133.019 29.985 133.295 30.041 133.598 30.041C133.892 30.041 134.135 30.006 134.326 29.936C134.517 29.8613 134.676 29.782 134.802 29.698C134.928 29.614 135.033 29.537 135.117 29.467C135.201 29.3923 135.287 29.355 135.376 29.355C135.488 29.355 135.574 29.397 135.635 29.481L136.027 29.985C135.864 30.1857 135.679 30.356 135.474 30.496C135.273 30.636 135.059 30.7503 134.83 30.839C134.601 30.9277 134.361 30.993 134.109 31.035C133.862 31.077 133.61 31.098 133.353 31.098C132.91 31.098 132.494 31.0163 132.107 30.853C131.724 30.6897 131.391 30.4517 131.106 30.139C130.826 29.8263 130.604 29.4437 130.441 28.991C130.278 28.5337 130.196 28.0157 130.196 27.437C130.196 26.9097 130.268 26.422 130.413 25.974C130.562 25.526 130.779 25.141 131.064 24.819C131.353 24.4923 131.708 24.238 132.128 24.056C132.548 23.8693 133.029 23.776 133.57 23.776C134.079 23.776 134.527 23.8577 134.914 24.021C135.301 24.1843 135.647 24.4153 135.95 24.714L135.586 25.218ZM140.209 23.776C140.732 23.776 141.203 23.8623 141.623 24.035C142.048 24.203 142.407 24.448 142.701 24.77C143 25.0873 143.229 25.4723 143.387 25.925C143.546 26.373 143.625 26.877 143.625 27.437C143.625 27.997 143.546 28.5033 143.387 28.956C143.229 29.4087 143 29.7937 142.701 30.111C142.407 30.4283 142.048 30.6733 141.623 30.846C141.203 31.014 140.732 31.098 140.209 31.098C139.682 31.098 139.206 31.014 138.781 30.846C138.361 30.6733 138.002 30.4283 137.703 30.111C137.405 29.7937 137.174 29.4087 137.01 28.956C136.852 28.5033 136.772 27.997 136.772 27.437C136.772 26.877 136.852 26.373 137.01 25.925C137.174 25.4723 137.405 25.0873 137.703 24.77C138.002 24.448 138.361 24.203 138.781 24.035C139.206 23.8623 139.682 23.776 140.209 23.776ZM140.209 30.034C140.881 30.034 141.383 29.8077 141.714 29.355C142.046 28.9023 142.211 28.2653 142.211 27.444C142.211 26.6227 142.046 25.9857 141.714 25.533C141.383 25.0757 140.881 24.847 140.209 24.847C139.528 24.847 139.019 25.0757 138.683 25.533C138.352 25.9857 138.186 26.6227 138.186 27.444C138.186 28.2653 138.352 28.9023 138.683 29.355C139.019 29.8077 139.528 30.034 140.209 30.034ZM146.437 25.253C146.666 24.7863 146.941 24.42 147.263 24.154C147.585 23.888 147.972 23.755 148.425 23.755C148.579 23.755 148.724 23.7737 148.859 23.811C148.999 23.8437 149.12 23.895 149.223 23.965L149.132 24.994C149.099 25.12 149.022 25.183 148.901 25.183C148.836 25.183 148.738 25.1713 148.607 25.148C148.476 25.12 148.336 25.106 148.187 25.106C147.968 25.106 147.774 25.1387 147.606 25.204C147.438 25.2647 147.286 25.358 147.151 25.484C147.02 25.6053 146.904 25.757 146.801 25.939C146.698 26.1163 146.603 26.3193 146.514 26.548V31H145.149V23.888H145.933C146.082 23.888 146.183 23.916 146.234 23.972C146.29 24.0233 146.33 24.1167 146.353 24.252L146.437 25.253ZM153.989 27.843C153.433 27.8617 152.962 27.906 152.575 27.976C152.187 28.0413 151.872 28.13 151.63 28.242C151.387 28.354 151.212 28.487 151.105 28.641C150.997 28.7903 150.944 28.9583 150.944 29.145C150.944 29.3223 150.972 29.4763 151.028 29.607C151.088 29.733 151.168 29.838 151.266 29.922C151.368 30.0013 151.487 30.0597 151.623 30.097C151.758 30.1343 151.905 30.153 152.064 30.153C152.274 30.153 152.465 30.132 152.638 30.09C152.815 30.048 152.981 29.9897 153.135 29.915C153.289 29.8357 153.436 29.74 153.576 29.628C153.716 29.516 153.853 29.3877 153.989 29.243V27.843ZM149.985 24.882C150.381 24.504 150.811 24.2217 151.273 24.035C151.739 23.8483 152.25 23.755 152.806 23.755C153.212 23.755 153.571 23.8227 153.884 23.958C154.196 24.0887 154.46 24.273 154.675 24.511C154.889 24.749 155.05 25.0337 155.158 25.365C155.27 25.6963 155.326 26.0627 155.326 26.464V31H154.717C154.581 31 154.479 30.979 154.409 30.937C154.339 30.8903 154.283 30.8063 154.241 30.685L154.094 30.062C153.912 30.23 153.732 30.3793 153.555 30.51C153.377 30.636 153.191 30.7457 152.995 30.839C152.803 30.9277 152.598 30.9953 152.379 31.042C152.159 31.0887 151.917 31.112 151.651 31.112C151.371 31.112 151.107 31.0747 150.86 31C150.617 30.9207 150.405 30.8017 150.223 30.643C150.041 30.4843 149.896 30.286 149.789 30.048C149.686 29.81 149.635 29.5323 149.635 29.215C149.635 28.935 149.709 28.6667 149.859 28.41C150.013 28.1487 150.26 27.9153 150.601 27.71C150.946 27.5047 151.394 27.3367 151.945 27.206C152.5 27.0753 153.181 27.0007 153.989 26.982V26.464C153.989 25.9273 153.874 25.526 153.646 25.26C153.417 24.994 153.081 24.861 152.638 24.861C152.339 24.861 152.087 24.8983 151.882 24.973C151.681 25.0477 151.506 25.1317 151.357 25.225C151.212 25.3137 151.084 25.3953 150.972 25.47C150.864 25.5447 150.752 25.582 150.636 25.582C150.542 25.582 150.461 25.5563 150.391 25.505C150.325 25.4537 150.272 25.393 150.23 25.323L149.985 24.882Z" fill="white"/>
<path d="M55.8385 9.2175V17H55.349V10.367C55.349 10.2717 55.3545 10.1708 55.3655 10.0645L52.302 15.504C52.2507 15.5993 52.1773 15.647 52.082 15.647H51.994C51.8987 15.647 51.8253 15.5993 51.774 15.504L48.628 10.0535C48.639 10.1635 48.6445 10.268 48.6445 10.367V17H48.1495V9.2175H48.54C48.5913 9.2175 48.6317 9.223 48.661 9.234C48.6903 9.245 48.7197 9.27433 48.749 9.322L51.8895 14.734C51.9445 14.8367 51.9922 14.9467 52.0325 15.064C52.0545 15.0053 52.0783 14.9485 52.104 14.8935C52.1297 14.8348 52.1572 14.7798 52.1865 14.7285L55.239 9.322C55.2683 9.27433 55.2977 9.245 55.327 9.234C55.36 9.223 55.4022 9.2175 55.4535 9.2175H55.8385ZM65.8287 9.2175V17H65.3392V10.367C65.3392 10.2717 65.3447 10.1708 65.3557 10.0645L62.2922 15.504C62.2409 15.5993 62.1676 15.647 62.0722 15.647H61.9842C61.8889 15.647 61.8156 15.5993 61.7642 15.504L58.6182 10.0535C58.6292 10.1635 58.6347 10.268 58.6347 10.367V17H58.1397V9.2175H58.5302C58.5816 9.2175 58.6219 9.223 58.6512 9.234C58.6806 9.245 58.7099 9.27433 58.7392 9.322L61.8797 14.734C61.9347 14.8367 61.9824 14.9467 62.0227 15.064C62.0447 15.0053 62.0686 14.9485 62.0942 14.8935C62.1199 14.8348 62.1474 14.7798 62.1767 14.7285L65.2292 9.322C65.2586 9.27433 65.2879 9.245 65.3172 9.234C65.3502 9.223 65.3924 9.2175 65.4437 9.2175H65.8287ZM72.3265 14.173L70.7425 10.2405C70.6875 10.1122 70.6343 9.95817 70.583 9.7785C70.561 9.8665 70.5371 9.95083 70.5115 10.0315C70.4858 10.1085 70.4583 10.18 70.429 10.246L68.845 14.173H72.3265ZM74.048 17H73.6135C73.5621 17 73.52 16.9872 73.487 16.9615C73.454 16.9322 73.4283 16.8955 73.41 16.8515L72.497 14.591H68.6745L67.7615 16.8515C67.7468 16.8918 67.7211 16.9267 67.6845 16.956C67.6478 16.9853 67.6038 17 67.5525 17H67.1235L70.308 9.2175H70.8635L74.048 17ZM77.252 13.062C77.5966 13.062 77.9046 13.0217 78.176 12.941C78.451 12.8567 78.682 12.7375 78.869 12.5835C79.0596 12.4295 79.2045 12.2443 79.3035 12.028C79.4025 11.8117 79.452 11.5678 79.452 11.2965C79.452 10.7428 79.2705 10.3322 78.9075 10.0645C78.5481 9.79683 78.022 9.663 77.329 9.663H75.9045V13.062H77.252ZM80.706 17H80.222C80.1596 17 80.1065 16.9908 80.0625 16.9725C80.0221 16.9505 79.9836 16.912 79.947 16.857L77.45 13.7C77.4206 13.6597 77.3895 13.6248 77.3565 13.5955C77.3271 13.5662 77.2923 13.5442 77.252 13.5295C77.2153 13.5112 77.1695 13.4983 77.1145 13.491C77.0631 13.4837 76.999 13.48 76.922 13.48H75.9045V17H75.338V9.2175H77.329C78.2236 9.2175 78.8928 9.39167 79.3365 9.74C79.7838 10.0847 80.0075 10.5925 80.0075 11.2635C80.0075 11.5605 79.9561 11.8318 79.8535 12.0775C79.7508 12.3232 79.6023 12.5395 79.408 12.7265C79.2173 12.9098 78.9845 13.0602 78.7095 13.1775C78.4381 13.2948 78.132 13.3737 77.791 13.414C77.879 13.469 77.9578 13.5423 78.0275 13.634L80.706 17Z" fill="white"/>
</svg>
